<svg version="1" xmlns="http://www.w3.org/2000/svg" width="345.333" height="345.333" viewBox="0 0 259.000000 259.000000"><path d="M141.5 22.2c-28 2.5-50 12.4-67.7 30.5C53.9 73 44.2 98.4 44.6 129.5c.4 32.1 9.3 54.1 29.6 73C91.7 219 115.6 227.1 146 227c7.4 0 14.9-.2 16.5-.4 1.7-.3 6.8-1 11.5-1.7 7.9-1.1 24.8-5.8 27.8-7.7.9-.7 1.2-5.3 1-19.9l-.3-19-5.5 2.6c-19.3 9.3-44.9 12-64 7-19.4-5.2-35.2-21.8-40.7-42.9-2.3-9-2.3-30.1.1-39 6.1-23.4 22.7-40.2 45.3-45.7 8.1-1.9 27.8-2.2 36.8-.4 8.1 1.6 18 4.9 23.8 7.8L203 70V29.1l-6.7-2c-15.2-4.6-37.2-6.5-54.8-4.9z"/></svg>